<?xml version="1.0" encoding="utf-8"?>
<svg version="1.0" viewBox="0 0 165 50" preserveAspectRatio="xMidYMid meet" xmlns="http://www.w3.org/2000/svg">
  <g transform="matrix(0.020338, 0, 0, -0.026312, 201.111923, 73.747139)" fill="#000000" stroke="none" style="">
    <path d="M71 1194 c-60 -42 -58 -137 2 -175 24 -15 43 -19 77 -15 41 4 73 -8 324 -117 217 -94 282 -118 295 -110 19 12 113 230 109 252 -4 21 -64 54 -85 47 -11 -3 -31 -35 -47 -73 -16 -38 -32 -72 -36 -76 -4 -4 -109 36 -234 90 -188 81 -230 103 -242 125 -34 66 -109 90 -163 52z m101 -51 c23 -21 23 -55 -1 -77 -48 -44 -122 15 -87 70 19 28 60 32 88 7z"/>
    <path d="M1028 1179 c-34 -25 -51 -74 -39 -116 8 -28 -4 -64 -111 -315 -78 -185 -117 -288 -111 -297 11 -18 242 -113 259 -107 22 9 50 75 39 92 -6 9 -43 29 -82 46 -40 16 -71 33 -69 36 1 4 47 111 100 238 89 209 101 232 131 248 62 34 71 113 18 168 -33 35 -94 38 -135 7z m104 -46 c23 -21 23 -55 -1 -77 -48 -44 -122 15 -87 70 19 28 60 32 88 7z"/>
    <path d="M445 1145 c-9 -25 -15 -51 -12 -58 6 -15 255 -119 268 -111 13 8 40 75 37 92 -3 12 -240 122 -264 122 -6 0 -19 -20 -29 -45z"/>
    <path d="M178 889 c-20 -11 -42 -64 -34 -84 3 -9 39 -31 80 -50 l75 -34 -39 -93 c-137 -328 -159 -380 -162 -382 -2 -1 -15 -10 -30 -19 -51 -32 -56 -116 -11 -162 45 -44 121 -41 162 8 19 24 25 85 11 112 -11 21 -3 46 80 247 50 122 103 249 118 281 25 57 25 58 6 77 -16 15 -108 57 -220 100 -11 4 -27 4 -36 -1z m-10 -705 c28 -19 29 -57 2 -84 -35 -35 -79 -20 -96 32 -5 16 0 27 20 45 32 27 44 28 74 7z"/>
    <path d="M1070 774 c-6 -14 -30 -72 -55 -130 -25 -58 -45 -110 -45 -115 0 -10 73 -49 92 -49 12 0 112 217 120 260 2 9 -14 23 -42 37 -57 28 -59 28 -70 -3z"/>
    <path d="M1456 770 c-16 -5 -44 -24 -63 -42 -83 -80 -61 -233 40 -278 53 -25 101 -25 155 0 45 20 51 30 27 50 -11 9 -19 8 -37 -4 -32 -23 -100 -20 -131 5 -59 46 -56 162 6 199 36 23 84 26 122 8 21 -9 29 -9 42 4 19 20 13 31 -31 52 -37 17 -84 19 -130 6z"/>
    <path d="M1781 758 c-5 -13 -34 -88 -65 -166 -31 -79 -56 -148 -56 -154 0 -15 52 -5 61 12 5 8 13 27 19 43 9 26 12 27 80 27 l71 0 19 -45 c17 -39 23 -45 49 -45 l29 0 -40 103 c-22 56 -52 134 -66 172 -25 65 -30 70 -60 73 -26 3 -34 -1 -41 -20z m71 -123 l26 -75 -54 0 c-30 0 -54 3 -54 7 0 14 45 143 50 143 3 0 17 -34 32 -75z"/>
    <path d="M2030 606 l0 -176 30 0 30 0 0 64 c0 101 31 102 98 1 39 -60 45 -65 77 -65 l36 0 -50 71 -51 71 30 28 c53 49 51 113 -3 154 -22 17 -46 22 -113 25 l-84 3 0 -176z m137 123 c76 -29 48 -119 -37 -119 l-40 0 0 58 c0 32 3 62 7 65 9 10 38 8 70 -4z"/>
    <path d="M2350 605 l0 -175 105 0 105 0 0 25 c0 24 -2 25 -75 25 l-75 0 0 50 0 50 60 0 c53 0 60 2 60 20 0 16 -8 19 -57 22 l-58 3 0 55 0 55 73 3 c64 3 72 5 72 22 0 19 -7 20 -105 20 l-105 0 0 -175z"/>
    <path d="M2630 605 l0 -175 105 0 105 0 0 25 c0 24 -2 25 -75 25 l-75 0 0 50 0 50 60 0 c53 0 60 2 60 20 0 18 -7 20 -60 20 l-60 0 0 60 0 60 75 0 c68 0 75 2 75 20 0 19 -7 20 -105 20 l-105 0 0 -175z"/>
    <path d="M2900 606 l0 -176 30 0 30 0 0 64 c0 102 36 102 100 1 37 -60 43 -65 75 -65 l36 0 -50 73 -49 73 30 25 c21 17 31 35 35 65 5 36 1 46 -24 74 -29 33 -33 34 -122 38 l-91 4 0 -176z m167 108 c35 -48 -2 -104 -67 -104 l-40 0 0 58 c0 32 3 62 8 66 12 13 86 -2 99 -20z"/>
    <path d="M3280 755 c0 -24 3 -25 55 -25 l55 0 0 -150 0 -150 30 0 30 0 0 150 0 150 50 0 c47 0 50 2 50 25 l0 25 -135 0 -135 0 0 -25z"/>
    <path d="M3600 606 l0 -176 30 0 30 0 0 64 c0 101 31 102 98 1 39 -60 45 -65 77 -65 l36 0 -50 71 -51 71 30 28 c53 49 51 113 -3 154 -22 17 -46 22 -113 25 l-84 3 0 -176z m137 123 c76 -29 48 -119 -37 -119 l-40 0 0 58 c0 32 3 62 7 65 9 10 38 8 70 -4z"/>
    <path d="M4011 758 c-5 -13 -34 -88 -65 -166 -31 -79 -56 -148 -56 -154 0 -15 52 -5 61 12 5 8 13 27 19 43 9 26 12 27 80 27 l71 0 19 -45 c17 -39 23 -45 49 -45 l29 0 -40 103 c-22 56 -52 134 -66 172 -25 65 -30 70 -60 73 -26 3 -34 -1 -41 -20z m71 -123 l26 -75 -54 0 c-30 0 -54 3 -54 7 0 14 45 143 50 143 3 0 17 -34 32 -75z"/>
    <path d="M4349 770 c-46 -13 -78 -41 -99 -84 -42 -88 -11 -193 70 -233 55 -29 101 -29 157 -2 42 20 43 22 27 40 -15 17 -19 17 -45 4 -68 -35 -139 -6 -160 66 -14 46 -1 105 30 133 26 24 93 32 131 16 24 -10 33 -10 45 0 24 20 18 30 -27 50 -45 20 -85 24 -129 10z"/>
    <path d="M4580 605 l0 -175 105 0 105 0 0 25 c0 24 -2 25 -75 25 l-75 0 0 50 0 50 60 0 c53 0 60 2 60 20 0 18 -7 20 -60 20 l-60 0 0 60 0 60 75 0 c68 0 75 2 75 20 0 19 -7 20 -105 20 l-105 0 0 -175z"/>
    <path d="M4850 606 l0 -176 30 0 30 0 0 64 c0 102 36 102 100 1 37 -60 43 -65 75 -65 l36 0 -50 73 -49 73 30 25 c21 17 31 35 35 65 5 36 1 46 -24 74 -29 33 -33 34 -122 38 l-91 4 0 -176z m167 108 c35 -48 -2 -104 -67 -104 l-40 0 0 58 c0 32 3 62 8 66 12 13 86 -2 99 -20z"/>
    <path d="M125 708 c-7 -18 -31 -77 -54 -132 -23 -54 -41 -102 -41 -106 0 -4 21 -17 47 -28 37 -16 51 -18 59 -9 10 11 114 251 114 263 0 7 -82 44 -98 44 -7 0 -19 -15 -27 -32z"/>
    <path d="M417 428 c-8 -13 -34 -70 -58 -127 l-43 -103 23 -19 c31 -26 68 -34 86 -19 7 6 26 43 41 81 15 38 32 68 38 65 6 -2 112 -47 235 -99 201 -86 226 -99 237 -126 29 -69 118 -85 173 -30 77 77 2 207 -102 178 -24 -7 -75 11 -302 106 -150 63 -282 115 -293 115 -12 0 -28 -10 -35 -22z m703 -267 c18 -35 12 -70 -14 -82 -57 -26 -103 20 -77 77 14 31 75 35 91 5z"/>
    <path d="M495 206 c-10 -25 -15 -50 -13 -56 4 -13 257 -122 268 -115 13 8 42 84 38 97 -5 12 -244 118 -266 118 -6 0 -18 -20 -27 -44z"/>
  </g>
</svg>